:FULLY-SPECIFIED
:DEGREES
2696
root 3.89487 16.4475 -2.01333 143.873 -92.6779 -128.422
lowerback -6.15437 -0.14826 0.0913581
upperback -4.47968 -0.32547 -0.923188
thorax -1.16755 -0.229751 -1.01485
lowerneck -14.807 -1.86196 0.884895
upperneck 20.6756 -3.58306 2.37757
head 8.95631 -1.44172 0.217489
rclavicle -3.77691e-015 1.82633e-015
rhumerus -34.0401 -4.65487 -80.0254
rradius 32.0453
rwrist 18.1269
rhand -25.338 -5.6295
rfingers 7.12502
rthumb 1.18515 -35.6059
lclavicle -3.77691e-015 1.82633e-015
lhumerus -41.4055 -5.64559 87.6158
lradius 34.8097
lwrist -6.67384
lhand -34.6215 -3.51027
lfingers 7.12502
lthumb -7.77946 26.3266
rfemur -26.7776 10.6029 22.9772
rtibia 28.0063
rfoot -15.4947 -20.5754
rtoes -3.65534
lfemur -41.3438 -2.73154 -23.3178
ltibia 63.4483
lfoot -12.6522 7.4704
ltoes -14.9662
2697
root 3.91514 16.4387 -2.01865 143.274 -92.6941 -127.606
lowerback -6.24809 -0.0699267 0.08984
upperback -4.5761 -0.226666 -1.00096
thorax -1.21385 -0.183854 -1.08922
lowerneck -14.8283 -1.9 0.950216
upperneck 20.7305 -3.62851 2.26412
head 8.97579 -1.46915 0.162175
rclavicle -8.74653e-015 -1.22765e-014
rhumerus -33.6646 -4.24552 -80.1975
rradius 32.2232
rwrist 17.8044
rhand -25.3681 -5.72694
rfingers 7.12502
rthumb 1.15607 -35.7036
lclavicle -8.74653e-015 -1.22765e-014
lhumerus -41.7962 -5.45637 87.487
lradius 34.5959
lwrist -6.83791
lhand -34.6226 -3.55142
lfingers 7.12502
lthumb -7.78048 26.2854
rfemur -26.5578 10.8217 22.9844
rtibia 28.0863
rfoot -15.9055 -20.8869
rtoes -3.88076
lfemur -42.2149 -3.2496 -23.2678
ltibia 61.8411
lfoot -13.2862 8.17423
ltoes -14.7932
2698
root 3.92902 16.4403 -2.02378 144.14 -92.8509 -128.495
lowerback -6.16859 -0.0444573 0.081814
upperback -4.59309 -0.193622 -1.09191
thorax -1.27525 -0.168758 -1.17624
lowerneck -14.7894 -1.9337 0.944062
upperneck 20.7153 -3.67241 2.26476
head 8.96385 -1.49074 0.158667
rclavicle -2.38542e-015 2.98425e-014
rhumerus -33.3393 -3.98137 -80.2881
rradius 32.4416
rwrist 17.8269
rhand -25.3044 -5.58636
rfingers 7.12502
rthumb 1.21762 -35.5626
lclavicle -2.38542e-015 2.98425e-014
lhumerus -42.2144 -5.29206 87.3504
lradius 34.4461
lwrist -7.09719
lhand -34.6764 -3.50049
lfingers 7.12502
lthumb -7.83248 26.3344
rfemur -25.9509 10.9669 22.9997
rtibia 28.0506
rfoot -16.4678 -21.2226
rtoes -4.02796
lfemur -42.7174 -3.83185 -23.2784
ltibia 59.9554
lfoot -13.6734 8.74592
ltoes -15.0364
2699
root 3.94857 16.4365 -2.02552 142.725 -92.7854 -126.862
lowerback -6.2779 0.0645022 0.150361
upperback -4.66892 -0.0561726 -1.15324
thorax -1.29038 -0.104485 -1.27122
lowerneck -14.776 -1.95602 0.883414
upperneck 20.6642 -3.6841 2.26625
head 8.94491 -1.50086 0.168387
rclavicle 1.98785e-015 1.41137e-014
rhumerus -32.9777 -3.47384 -80.4443
rradius 32.7167
rwrist 17.3911
rhand -25.2998 -5.56375
rfingers 7.12502
rthumb 1.22205 -35.54
lclavicle 1.98785e-015 1.41137e-014
lhumerus -42.5569 -5.03145 87.2093
lradius 34.3263
lwrist -7.12477
lhand -34.5736 -3.58798
lfingers 7.12502
lthumb -7.73319 26.2506
rfemur -25.6377 11.2354 23.0133
rtibia 27.9339
rfoot -16.8131 -21.4541
rtoes -4.15672
lfemur -43.3957 -4.25432 -23.2153
ltibia 57.8523
lfoot -13.972 9.3064
ltoes -14.359
2700
root 3.96378 16.438 -2.02947 143.649 -92.8534 -127.735
lowerback -6.2669 0.100787 0.197017
upperback -4.68113 -0.0110059 -1.21874
thorax -1.30818 -0.0842605 -1.36252
lowerneck -14.7874 -1.97602 0.895052
upperneck 20.6438 -3.7022 2.22262
head 8.93887 -1.51267 0.149569
rclavicle 0 -2.38542e-015
rhumerus -32.6546 -2.93615 -80.6291
rradius 33.111
rwrist 17.1403
rhand -25.2372 -5.70214
rfingers 7.12502
rthumb 1.28245 -35.678
lclavicle 0 -2.38542e-015
lhumerus -42.8656 -4.76021 87.0067
lradius 34.1898
lwrist -7.38016
lhand -34.368 -3.44007
lfingers 7.12502
lthumb -7.53474 26.4057
rfemur -24.9967 11.4839 23.0683
rtibia 27.6345
rfoot -17.1608 -21.7865
rtoes -4.3126
lfemur -43.7604 -4.79754 -23.1307
ltibia 55.48
lfoot -14.2085 9.86025
ltoes -13.9444
2701
root 3.97698 16.4472 -2.03258 144.17 -92.8746 -128.13
lowerback -6.3508 0.160413 0.254896
upperback -4.7071 0.0637093 -1.27639
thorax -1.28666 -0.0498798 -1.45067
lowerneck -14.8858 -1.98895 0.969561
upperneck 20.6788 -3.71307 2.10811
head 8.96513 -1.52191 0.095835
rclavicle -1.98785e-015 -1.89839e-014
rhumerus -32.3549 -2.48336 -80.7823
rradius 33.4939
rwrist 16.9044
rhand -25.2787 -5.68956
rfingers 7.12502
rthumb 1.24238 -35.6657
lclavicle -1.98785e-015 -1.89839e-014
lhumerus -43.1789 -4.54847 86.8506
lradius 34.1216
lwrist -7.40573
lhand -34.3273 -3.30878
lfingers 7.12502
lthumb -7.49546 26.5384
rfemur -24.3812 11.7299 23.123
rtibia 27.2185
rfoot -17.3401 -22.0891
rtoes -4.18128
lfemur -44.0594 -5.24488 -23.0437
ltibia 52.8594
lfoot -14.2476 10.3335
ltoes -14.2523
2702
root 3.99054 16.456 -2.03344 142.838 -92.8221 -126.656
lowerback -6.44521 0.260281 0.29566
upperback -4.74721 0.191965 -1.33422
thorax -1.27215 0.0113379 -1.52648
lowerneck -14.9288 -2.01633 1.01171
upperneck 20.6656 -3.73821 2.0169
head 8.96573 -1.53911 0.0545765
rclavicle -4.37326e-015 3.05134e-014
rhumerus -32.0724 -1.89455 -80.9501
rradius 33.9261
rwrist 16.5573
rhand -25.2711 -5.83758
rfingers 7.12502
rthumb 1.24969 -35.8137
lclavicle -4.37326e-015 3.05134e-014
lhumerus -43.5165 -4.32747 86.6992
lradius 34.0783
lwrist -7.48973
lhand -34.3206 -3.32187
lfingers 7.12502
lthumb -7.489 26.5256
rfemur -23.7037 11.9362 23.1687
rtibia 26.6537
rfoot -17.6834 -22.2036
rtoes -4.05339
lfemur -44.2119 -5.73951 -22.9225
ltibia 49.9943
lfoot -14.5107 10.8499
ltoes -14.218
2703
root 4.00647 16.4727 -2.03322 141.141 -92.7676 -124.803
lowerback -6.47927 0.361227 0.339581
upperback -4.81475 0.320362 -1.38936
thorax -1.31905 0.0718944 -1.60132
lowerneck -14.97 -2.03919 1.03362
upperneck 20.6548 -3.75681 1.94488
head 8.96756 -1.55282 0.0239662
rclavicle 3.97569e-016 -1.09332e-015
rhumerus -31.8283 -1.38506 -81.0705
rradius 34.3375
rwrist 16.117
rhand -25.3264 -5.6421
rfingers 7.12502
rthumb 1.19634 -35.6185
lclavicle 3.97569e-016 -1.09332e-015
lhumerus -43.8062 -4.14618 86.5946
lradius 34.0135
lwrist -7.39117
lhand -34.275 -3.20188
lfingers 7.12502
lthumb -7.44497 26.6471
rfemur -23.0366 12.1718 23.1782
rtibia 25.9882
rfoot -17.782 -22.3601
rtoes -4.06306
lfemur -44.2756 -6.21935 -22.8018
ltibia 46.8999
lfoot -14.4013 11.2475
ltoes -14.3362
2704
root 4.02161 16.489 -2.03159 139.992 -92.7059 -123.511
lowerback -6.54134 0.453661 0.42432
upperback -4.84666 0.437172 -1.44289
thorax -1.31325 0.126615 -1.69778
lowerneck -15.005 -2.05313 1.06592
upperneck 20.5899 -3.76884 1.90169
head 8.95012 -1.55996 0.0027032
rclavicle 5.96354e-015 1.88845e-015
rhumerus -31.5933 -0.835316 -81.213
rradius 34.8334
rwrist 15.8749
rhand -25.2724 -5.81529
rfingers 7.12502
rthumb 1.24846 -35.7914
lclavicle 5.96354e-015 1.88845e-015
lhumerus -44.0504 -3.87962 86.409
lradius 33.9448
lwrist -7.44111
lhand -34.2315 -3.28398
lfingers 7.12502
lthumb -7.40306 26.5665
rfemur -22.2831 12.3534 23.2342
rtibia 25.226
rfoot -17.8026 -22.464
rtoes -4.05102
lfemur -44.224 -6.81084 -22.5784
ltibia 43.621
lfoot -14.094 11.4647
ltoes -14.6703
2705
root 4.03625 16.5099 -2.03032 137.899 -92.6256 -121.204
lowerback -6.69278 0.555718 0.453934
upperback -4.90062 0.567745 -1.47644
thorax -1.28049 0.189144 -1.74132
lowerneck -15.0146 -2.05751 1.06384
upperneck 20.542 -3.76376 1.87373
head 8.93471 -1.56048 -0.00547364
rclavicle -4.37326e-015 1.79403e-014
rhumerus -31.3569 -0.274388 -81.3447
rradius 35.3157
rwrist 15.2504
rhand -25.4377 -5.7409
rfingers 7.12502
rthumb 1.08884 -35.7179
lclavicle -4.37326e-015 1.79403e-014
lhumerus -44.2906 -3.66955 86.2821
lradius 33.8964
lwrist -7.45893
lhand -34.1946 -3.24001
lfingers 7.12502
lthumb -7.3674 26.6117
rfemur -21.5769 12.5172 23.2514
rtibia 24.4056
rfoot -17.8106 -22.4719
rtoes -4.03986
lfemur -44.1296 -7.45757 -22.2771
ltibia 40.1792
lfoot -13.8575 11.4989
ltoes -14.6312
